<mxfile host="app.diagrams.net" modified="2023-01-18T05:47:52.281Z" agent="5.0 (Windows NT 10.0; Win64; x64) AppleWebKit/537.36 (KHTML, like Gecko) Chrome/109.0.0.0 Safari/537.36" etag="AvbtHaSYgjX4XJmijr4a" version="20.8.5" type="github">
  <diagram id="C5RBs43oDa-KdzZeNtuy" name="Page-1">
    <mxGraphModel dx="986" dy="578" grid="1" gridSize="10" guides="1" tooltips="1" connect="1" arrows="1" fold="1" page="1" pageScale="1" pageWidth="980" pageHeight="1390" math="0" shadow="0">
      <root>
        <mxCell id="WIyWlLk6GJQsqaUBKTNV-0" />
        <mxCell id="WIyWlLk6GJQsqaUBKTNV-1" parent="WIyWlLk6GJQsqaUBKTNV-0" />
        <mxCell id="WIyWlLk6GJQsqaUBKTNV-2" value="" style="rounded=0;html=1;jettySize=auto;orthogonalLoop=1;fontSize=11;endArrow=block;endFill=0;endSize=8;strokeWidth=1;shadow=0;labelBackgroundColor=none;edgeStyle=orthogonalEdgeStyle;" parent="WIyWlLk6GJQsqaUBKTNV-1" edge="1">
          <mxGeometry relative="1" as="geometry">
            <mxPoint x="220" y="65" as="sourcePoint" />
            <mxPoint x="220" y="115" as="targetPoint" />
          </mxGeometry>
        </mxCell>
        <mxCell id="TxjsqX_ssU-Fthm4vo7j-15" value="" style="edgeStyle=orthogonalEdgeStyle;rounded=0;orthogonalLoop=1;jettySize=auto;html=1;" edge="1" parent="WIyWlLk6GJQsqaUBKTNV-1" source="WIyWlLk6GJQsqaUBKTNV-7">
          <mxGeometry relative="1" as="geometry">
            <mxPoint x="220" y="184" as="targetPoint" />
          </mxGeometry>
        </mxCell>
        <mxCell id="WIyWlLk6GJQsqaUBKTNV-7" value="게임 화면 로드&lt;br&gt;init();" style="rounded=1;whiteSpace=wrap;html=1;fontSize=12;glass=0;strokeWidth=1;shadow=0;" parent="WIyWlLk6GJQsqaUBKTNV-1" vertex="1">
          <mxGeometry x="160" y="115" width="120" height="40" as="geometry" />
        </mxCell>
        <mxCell id="TxjsqX_ssU-Fthm4vo7j-0" value="Start" style="ellipse;whiteSpace=wrap;html=1;" vertex="1" parent="WIyWlLk6GJQsqaUBKTNV-1">
          <mxGeometry x="165" y="25" width="110" height="60" as="geometry" />
        </mxCell>
        <mxCell id="TxjsqX_ssU-Fthm4vo7j-25" value="" style="edgeStyle=orthogonalEdgeStyle;rounded=0;orthogonalLoop=1;jettySize=auto;html=1;" edge="1" parent="WIyWlLk6GJQsqaUBKTNV-1" source="TxjsqX_ssU-Fthm4vo7j-20" target="TxjsqX_ssU-Fthm4vo7j-24">
          <mxGeometry relative="1" as="geometry" />
        </mxCell>
        <mxCell id="TxjsqX_ssU-Fthm4vo7j-20" value="버튼 클릭" style="rhombus;whiteSpace=wrap;html=1;fillColor=none;" vertex="1" parent="WIyWlLk6GJQsqaUBKTNV-1">
          <mxGeometry x="160" y="185" width="120" height="75" as="geometry" />
        </mxCell>
        <mxCell id="TxjsqX_ssU-Fthm4vo7j-31" value="" style="edgeStyle=orthogonalEdgeStyle;rounded=0;orthogonalLoop=1;jettySize=auto;html=1;" edge="1" parent="WIyWlLk6GJQsqaUBKTNV-1" source="TxjsqX_ssU-Fthm4vo7j-24" target="TxjsqX_ssU-Fthm4vo7j-30">
          <mxGeometry relative="1" as="geometry" />
        </mxCell>
        <mxCell id="TxjsqX_ssU-Fthm4vo7j-24" value="isPlaying==true 인가?" style="rounded=1;whiteSpace=wrap;html=1;fillColor=none;" vertex="1" parent="WIyWlLk6GJQsqaUBKTNV-1">
          <mxGeometry x="160" y="290" width="120" height="40" as="geometry" />
        </mxCell>
        <mxCell id="TxjsqX_ssU-Fthm4vo7j-26" value="run();" style="text;html=1;align=center;verticalAlign=middle;resizable=0;points=[];autosize=1;strokeColor=none;fillColor=none;" vertex="1" parent="WIyWlLk6GJQsqaUBKTNV-1">
          <mxGeometry x="280" y="365" width="50" height="30" as="geometry" />
        </mxCell>
        <mxCell id="TxjsqX_ssU-Fthm4vo7j-53" style="edgeStyle=elbowEdgeStyle;rounded=0;orthogonalLoop=1;jettySize=auto;elbow=vertical;html=1;shadow=0;entryX=0;entryY=0.5;entryDx=0;entryDy=0;exitX=0;exitY=0.5;exitDx=0;exitDy=0;" edge="1" parent="WIyWlLk6GJQsqaUBKTNV-1" source="TxjsqX_ssU-Fthm4vo7j-24" target="WIyWlLk6GJQsqaUBKTNV-7">
          <mxGeometry relative="1" as="geometry">
            <mxPoint x="120" y="60" as="targetPoint" />
            <Array as="points">
              <mxPoint x="130" y="380" />
            </Array>
          </mxGeometry>
        </mxCell>
        <mxCell id="TxjsqX_ssU-Fthm4vo7j-56" value="" style="edgeStyle=elbowEdgeStyle;rounded=0;orthogonalLoop=1;jettySize=auto;elbow=vertical;html=1;shadow=0;" edge="1" parent="WIyWlLk6GJQsqaUBKTNV-1" source="TxjsqX_ssU-Fthm4vo7j-30" target="TxjsqX_ssU-Fthm4vo7j-55">
          <mxGeometry relative="1" as="geometry" />
        </mxCell>
        <mxCell id="TxjsqX_ssU-Fthm4vo7j-30" value="게임 실행" style="whiteSpace=wrap;html=1;fillColor=none;rounded=1;" vertex="1" parent="WIyWlLk6GJQsqaUBKTNV-1">
          <mxGeometry x="160" y="360" width="120" height="40" as="geometry" />
        </mxCell>
        <mxCell id="TxjsqX_ssU-Fthm4vo7j-32" style="edgeStyle=orthogonalEdgeStyle;rounded=0;orthogonalLoop=1;jettySize=auto;html=1;exitX=0.5;exitY=1;exitDx=0;exitDy=0;" edge="1" parent="WIyWlLk6GJQsqaUBKTNV-1" source="TxjsqX_ssU-Fthm4vo7j-30" target="TxjsqX_ssU-Fthm4vo7j-30">
          <mxGeometry relative="1" as="geometry" />
        </mxCell>
        <mxCell id="TxjsqX_ssU-Fthm4vo7j-33" value="&lt;span style=&quot;color: rgb(0, 0, 0); font-family: Helvetica; font-size: 11px; font-style: normal; font-variant-ligatures: normal; font-variant-caps: normal; font-weight: 400; letter-spacing: normal; orphans: 2; text-align: center; text-indent: 0px; text-transform: none; widows: 2; word-spacing: 0px; -webkit-text-stroke-width: 0px; background-color: rgb(251, 251, 251); text-decoration-thickness: initial; text-decoration-style: initial; text-decoration-color: initial; float: none; display: inline !important;&quot;&gt;Yes&lt;/span&gt;" style="text;whiteSpace=wrap;html=1;" vertex="1" parent="WIyWlLk6GJQsqaUBKTNV-1">
          <mxGeometry x="195" y="335" width="50" height="40" as="geometry" />
        </mxCell>
        <mxCell id="TxjsqX_ssU-Fthm4vo7j-54" value="&lt;div style=&quot;text-align: center;&quot;&gt;&lt;span style=&quot;background-color: initial; font-size: 11px;&quot;&gt;No&lt;/span&gt;&lt;/div&gt;" style="text;whiteSpace=wrap;html=1;" vertex="1" parent="WIyWlLk6GJQsqaUBKTNV-1">
          <mxGeometry x="130" y="310" width="50" height="40" as="geometry" />
        </mxCell>
        <mxCell id="TxjsqX_ssU-Fthm4vo7j-59" value="" style="edgeStyle=elbowEdgeStyle;rounded=0;orthogonalLoop=1;jettySize=auto;elbow=vertical;html=1;shadow=0;startArrow=none;" edge="1" parent="WIyWlLk6GJQsqaUBKTNV-1" source="TxjsqX_ssU-Fthm4vo7j-88" target="TxjsqX_ssU-Fthm4vo7j-58">
          <mxGeometry relative="1" as="geometry" />
        </mxCell>
        <mxCell id="TxjsqX_ssU-Fthm4vo7j-90" value="" style="edgeStyle=elbowEdgeStyle;rounded=0;orthogonalLoop=1;jettySize=auto;elbow=vertical;html=1;shadow=0;fontSize=12;startArrow=none;startFill=0;endArrow=classic;endFill=1;" edge="1" parent="WIyWlLk6GJQsqaUBKTNV-1" source="TxjsqX_ssU-Fthm4vo7j-55" target="TxjsqX_ssU-Fthm4vo7j-88">
          <mxGeometry relative="1" as="geometry" />
        </mxCell>
        <mxCell id="TxjsqX_ssU-Fthm4vo7j-55" value="게임 상태 체크" style="whiteSpace=wrap;html=1;fillColor=none;rounded=1;" vertex="1" parent="WIyWlLk6GJQsqaUBKTNV-1">
          <mxGeometry x="160" y="430" width="120" height="40" as="geometry" />
        </mxCell>
        <mxCell id="TxjsqX_ssU-Fthm4vo7j-57" value="checkStatus();" style="text;html=1;align=center;verticalAlign=middle;resizable=0;points=[];autosize=1;strokeColor=none;fillColor=none;" vertex="1" parent="WIyWlLk6GJQsqaUBKTNV-1">
          <mxGeometry x="279" y="435" width="100" height="30" as="geometry" />
        </mxCell>
        <mxCell id="TxjsqX_ssU-Fthm4vo7j-66" style="edgeStyle=elbowEdgeStyle;rounded=0;orthogonalLoop=1;jettySize=auto;elbow=vertical;html=1;shadow=0;endArrow=none;endFill=0;exitX=1;exitY=0.5;exitDx=0;exitDy=0;" edge="1" parent="WIyWlLk6GJQsqaUBKTNV-1" source="TxjsqX_ssU-Fthm4vo7j-75">
          <mxGeometry relative="1" as="geometry">
            <mxPoint x="370" y="60" as="targetPoint" />
            <Array as="points">
              <mxPoint x="370" y="695" />
              <mxPoint x="380" y="520" />
              <mxPoint x="330" y="520" />
            </Array>
          </mxGeometry>
        </mxCell>
        <mxCell id="TxjsqX_ssU-Fthm4vo7j-78" value="" style="edgeStyle=elbowEdgeStyle;rounded=0;orthogonalLoop=1;jettySize=auto;elbow=vertical;html=1;shadow=0;startArrow=none;startFill=0;endArrow=classic;endFill=1;" edge="1" parent="WIyWlLk6GJQsqaUBKTNV-1" source="TxjsqX_ssU-Fthm4vo7j-58" target="TxjsqX_ssU-Fthm4vo7j-75">
          <mxGeometry relative="1" as="geometry" />
        </mxCell>
        <mxCell id="TxjsqX_ssU-Fthm4vo7j-58" value="단어 입력&lt;br&gt;wordInput.value" style="whiteSpace=wrap;html=1;fillColor=none;rounded=1;" vertex="1" parent="WIyWlLk6GJQsqaUBKTNV-1">
          <mxGeometry x="160" y="580" width="120" height="40" as="geometry" />
        </mxCell>
        <mxCell id="TxjsqX_ssU-Fthm4vo7j-71" value="" style="edgeStyle=elbowEdgeStyle;rounded=0;orthogonalLoop=1;jettySize=auto;elbow=vertical;html=1;shadow=0;endArrow=none;endFill=0;startArrow=classicThin;startFill=1;" edge="1" parent="WIyWlLk6GJQsqaUBKTNV-1" source="TxjsqX_ssU-Fthm4vo7j-62">
          <mxGeometry relative="1" as="geometry">
            <mxPoint x="370" y="60" as="targetPoint" />
          </mxGeometry>
        </mxCell>
        <mxCell id="TxjsqX_ssU-Fthm4vo7j-94" value="" style="edgeStyle=elbowEdgeStyle;rounded=0;orthogonalLoop=1;jettySize=auto;elbow=vertical;html=1;shadow=0;fontSize=12;startArrow=none;startFill=0;endArrow=classic;endFill=1;" edge="1" parent="WIyWlLk6GJQsqaUBKTNV-1" source="TxjsqX_ssU-Fthm4vo7j-62" target="TxjsqX_ssU-Fthm4vo7j-92">
          <mxGeometry relative="1" as="geometry" />
        </mxCell>
        <mxCell id="TxjsqX_ssU-Fthm4vo7j-121" value="" style="edgeStyle=elbowEdgeStyle;rounded=0;orthogonalLoop=1;jettySize=auto;elbow=vertical;html=1;shadow=0;fontSize=12;startArrow=none;startFill=0;endArrow=classic;endFill=1;" edge="1" parent="WIyWlLk6GJQsqaUBKTNV-1" source="TxjsqX_ssU-Fthm4vo7j-62" target="TxjsqX_ssU-Fthm4vo7j-120">
          <mxGeometry relative="1" as="geometry" />
        </mxCell>
        <mxCell id="TxjsqX_ssU-Fthm4vo7j-62" value="단어 일치 체크&lt;br&gt;checkWordMatch();" style="rounded=1;whiteSpace=wrap;html=1;fillColor=none;" vertex="1" parent="WIyWlLk6GJQsqaUBKTNV-1">
          <mxGeometry x="395" y="32.5" width="120" height="45" as="geometry" />
        </mxCell>
        <mxCell id="TxjsqX_ssU-Fthm4vo7j-75" value="&lt;font style=&quot;font-size: 8px;&quot;&gt;addEventListener()&lt;/font&gt;" style="rhombus;whiteSpace=wrap;html=1;fillColor=none;" vertex="1" parent="WIyWlLk6GJQsqaUBKTNV-1">
          <mxGeometry x="160" y="660" width="120" height="70" as="geometry" />
        </mxCell>
        <mxCell id="TxjsqX_ssU-Fthm4vo7j-81" value="&lt;font style=&quot;font-size: 12px;&quot;&gt;buttonChange();&lt;/font&gt;" style="text;html=1;align=center;verticalAlign=middle;resizable=0;points=[];autosize=1;strokeColor=none;fillColor=none;fontSize=8;" vertex="1" parent="WIyWlLk6GJQsqaUBKTNV-1">
          <mxGeometry x="270" y="207.5" width="110" height="30" as="geometry" />
        </mxCell>
        <mxCell id="TxjsqX_ssU-Fthm4vo7j-86" value="" style="edgeStyle=elbowEdgeStyle;rounded=0;orthogonalLoop=1;jettySize=auto;elbow=vertical;html=1;shadow=0;fontSize=12;startArrow=none;startFill=0;endArrow=classic;endFill=1;" edge="1" parent="WIyWlLk6GJQsqaUBKTNV-1" source="TxjsqX_ssU-Fthm4vo7j-114" target="TxjsqX_ssU-Fthm4vo7j-85">
          <mxGeometry relative="1" as="geometry">
            <mxPoint x="455" y="262.5" as="sourcePoint" />
          </mxGeometry>
        </mxCell>
        <mxCell id="TxjsqX_ssU-Fthm4vo7j-84" value="&lt;span style=&quot;color: rgb(0, 0, 0); font-family: Helvetica; font-size: 11px; font-style: normal; font-variant-ligatures: normal; font-variant-caps: normal; font-weight: 400; letter-spacing: normal; orphans: 2; text-align: center; text-indent: 0px; text-transform: none; widows: 2; word-spacing: 0px; -webkit-text-stroke-width: 0px; background-color: rgb(251, 251, 251); text-decoration-thickness: initial; text-decoration-style: initial; text-decoration-color: initial; float: none; display: inline !important;&quot;&gt;Yes&lt;/span&gt;" style="text;whiteSpace=wrap;html=1;" vertex="1" parent="WIyWlLk6GJQsqaUBKTNV-1">
          <mxGeometry x="420" y="167.5" width="50" height="40" as="geometry" />
        </mxCell>
        <mxCell id="TxjsqX_ssU-Fthm4vo7j-132" style="edgeStyle=elbowEdgeStyle;rounded=0;orthogonalLoop=1;jettySize=auto;elbow=vertical;html=1;shadow=0;fontSize=12;startArrow=none;startFill=0;endArrow=none;endFill=0;" edge="1" parent="WIyWlLk6GJQsqaUBKTNV-1" source="TxjsqX_ssU-Fthm4vo7j-85">
          <mxGeometry relative="1" as="geometry">
            <mxPoint x="440" y="740" as="targetPoint" />
            <Array as="points">
              <mxPoint x="455" y="740" />
              <mxPoint x="455" y="650" />
              <mxPoint x="455" y="590" />
              <mxPoint x="455" y="370" />
              <mxPoint x="455" y="340" />
              <mxPoint x="440" y="750" />
              <mxPoint x="440" y="720" />
              <mxPoint x="440" y="610" />
            </Array>
          </mxGeometry>
        </mxCell>
        <mxCell id="TxjsqX_ssU-Fthm4vo7j-85" value="time = GAME_TIME&amp;nbsp;&lt;br&gt;초기화" style="whiteSpace=wrap;html=1;fillColor=none;rounded=1;" vertex="1" parent="WIyWlLk6GJQsqaUBKTNV-1">
          <mxGeometry x="395" y="270" width="120" height="40" as="geometry" />
        </mxCell>
        <mxCell id="TxjsqX_ssU-Fthm4vo7j-133" style="edgeStyle=elbowEdgeStyle;rounded=0;orthogonalLoop=1;jettySize=auto;elbow=vertical;html=1;shadow=0;fontSize=12;startArrow=classic;startFill=1;endArrow=none;endFill=0;" edge="1" parent="WIyWlLk6GJQsqaUBKTNV-1" source="TxjsqX_ssU-Fthm4vo7j-88">
          <mxGeometry relative="1" as="geometry">
            <mxPoint x="80" y="520" as="targetPoint" />
          </mxGeometry>
        </mxCell>
        <mxCell id="TxjsqX_ssU-Fthm4vo7j-88" value="단어 불러오기" style="rounded=1;whiteSpace=wrap;html=1;fontSize=12;fillColor=none;" vertex="1" parent="WIyWlLk6GJQsqaUBKTNV-1">
          <mxGeometry x="160" y="500" width="120" height="40" as="geometry" />
        </mxCell>
        <mxCell id="TxjsqX_ssU-Fthm4vo7j-91" value="getWords();" style="text;html=1;align=center;verticalAlign=middle;resizable=0;points=[];autosize=1;strokeColor=none;fillColor=none;fontSize=12;" vertex="1" parent="WIyWlLk6GJQsqaUBKTNV-1">
          <mxGeometry x="278" y="505" width="90" height="30" as="geometry" />
        </mxCell>
        <mxCell id="TxjsqX_ssU-Fthm4vo7j-118" style="edgeStyle=elbowEdgeStyle;rounded=0;orthogonalLoop=1;jettySize=auto;elbow=vertical;html=1;entryX=0.5;entryY=0;entryDx=0;entryDy=0;shadow=0;fontSize=12;startArrow=none;startFill=0;endArrow=classic;endFill=1;" edge="1" parent="WIyWlLk6GJQsqaUBKTNV-1" source="TxjsqX_ssU-Fthm4vo7j-92" target="TxjsqX_ssU-Fthm4vo7j-114">
          <mxGeometry relative="1" as="geometry" />
        </mxCell>
        <mxCell id="TxjsqX_ssU-Fthm4vo7j-126" value="" style="edgeStyle=elbowEdgeStyle;rounded=0;orthogonalLoop=1;jettySize=auto;elbow=vertical;html=1;shadow=0;fontSize=12;startArrow=none;startFill=0;endArrow=classic;endFill=1;" edge="1" parent="WIyWlLk6GJQsqaUBKTNV-1" source="TxjsqX_ssU-Fthm4vo7j-92">
          <mxGeometry relative="1" as="geometry">
            <mxPoint x="580" y="150" as="targetPoint" />
            <Array as="points">
              <mxPoint x="530" y="150" />
            </Array>
          </mxGeometry>
        </mxCell>
        <mxCell id="TxjsqX_ssU-Fthm4vo7j-92" value="남은시간 확인&lt;br&gt;countDown();" style="rounded=1;whiteSpace=wrap;html=1;fontSize=12;fillColor=none;" vertex="1" parent="WIyWlLk6GJQsqaUBKTNV-1">
          <mxGeometry x="395" y="130" width="120" height="40" as="geometry" />
        </mxCell>
        <mxCell id="TxjsqX_ssU-Fthm4vo7j-106" value="&lt;div style=&quot;text-align: center;&quot;&gt;&lt;span style=&quot;background-color: initial; font-size: 11px;&quot;&gt;No&lt;/span&gt;&lt;/div&gt;" style="text;whiteSpace=wrap;html=1;" vertex="1" parent="WIyWlLk6GJQsqaUBKTNV-1">
          <mxGeometry x="518" y="127.5" width="50" height="40" as="geometry" />
        </mxCell>
        <mxCell id="TxjsqX_ssU-Fthm4vo7j-114" value="점수 획득" style="rounded=1;whiteSpace=wrap;html=1;fontSize=12;fillColor=none;" vertex="1" parent="WIyWlLk6GJQsqaUBKTNV-1">
          <mxGeometry x="395" y="207.5" width="120" height="30" as="geometry" />
        </mxCell>
        <mxCell id="TxjsqX_ssU-Fthm4vo7j-130" style="edgeStyle=elbowEdgeStyle;rounded=0;orthogonalLoop=1;jettySize=auto;elbow=vertical;html=1;shadow=0;fontSize=12;startArrow=none;startFill=0;endArrow=classic;endFill=1;" edge="1" parent="WIyWlLk6GJQsqaUBKTNV-1" source="TxjsqX_ssU-Fthm4vo7j-120">
          <mxGeometry relative="1" as="geometry">
            <mxPoint x="476" y="130" as="targetPoint" />
          </mxGeometry>
        </mxCell>
        <mxCell id="TxjsqX_ssU-Fthm4vo7j-120" value="단어 입력&lt;br&gt;wordInput.value" style="whiteSpace=wrap;html=1;fillColor=none;rounded=1;" vertex="1" parent="WIyWlLk6GJQsqaUBKTNV-1">
          <mxGeometry x="568" y="30" width="115" height="46.25" as="geometry" />
        </mxCell>
        <mxCell id="TxjsqX_ssU-Fthm4vo7j-122" value="&lt;span style=&quot;color: rgb(0, 0, 0); font-family: Helvetica; font-size: 11px; font-style: normal; font-variant-ligatures: normal; font-variant-caps: normal; font-weight: 400; letter-spacing: normal; orphans: 2; text-align: center; text-indent: 0px; text-transform: none; widows: 2; word-spacing: 0px; -webkit-text-stroke-width: 0px; background-color: rgb(251, 251, 251); text-decoration-thickness: initial; text-decoration-style: initial; text-decoration-color: initial; float: none; display: inline !important;&quot;&gt;Yes&lt;/span&gt;" style="text;whiteSpace=wrap;html=1;" vertex="1" parent="WIyWlLk6GJQsqaUBKTNV-1">
          <mxGeometry x="420" y="77.5" width="50" height="40" as="geometry" />
        </mxCell>
        <mxCell id="TxjsqX_ssU-Fthm4vo7j-123" value="&lt;div style=&quot;text-align: center;&quot;&gt;&lt;span style=&quot;background-color: initial; font-size: 11px;&quot;&gt;No&lt;/span&gt;&lt;/div&gt;" style="text;whiteSpace=wrap;html=1;" vertex="1" parent="WIyWlLk6GJQsqaUBKTNV-1">
          <mxGeometry x="518" y="32.5" width="50" height="40" as="geometry" />
        </mxCell>
        <mxCell id="TxjsqX_ssU-Fthm4vo7j-128" value="Finish" style="ellipse;whiteSpace=wrap;html=1;fontSize=12;fillColor=none;" vertex="1" parent="WIyWlLk6GJQsqaUBKTNV-1">
          <mxGeometry x="580" y="121.25" width="110" height="63.75" as="geometry" />
        </mxCell>
        <mxCell id="TxjsqX_ssU-Fthm4vo7j-134" value="" style="endArrow=none;html=1;rounded=0;shadow=0;fontSize=12;elbow=vertical;" edge="1" parent="WIyWlLk6GJQsqaUBKTNV-1">
          <mxGeometry width="50" height="50" relative="1" as="geometry">
            <mxPoint x="80" y="740" as="sourcePoint" />
            <mxPoint x="80" y="520" as="targetPoint" />
          </mxGeometry>
        </mxCell>
        <mxCell id="TxjsqX_ssU-Fthm4vo7j-135" value="" style="endArrow=none;html=1;rounded=0;shadow=0;fontSize=12;elbow=vertical;" edge="1" parent="WIyWlLk6GJQsqaUBKTNV-1">
          <mxGeometry width="50" height="50" relative="1" as="geometry">
            <mxPoint x="80" y="740" as="sourcePoint" />
            <mxPoint x="440" y="740" as="targetPoint" />
          </mxGeometry>
        </mxCell>
        <mxCell id="TxjsqX_ssU-Fthm4vo7j-137" style="edgeStyle=elbowEdgeStyle;rounded=0;orthogonalLoop=1;jettySize=auto;elbow=vertical;html=1;exitX=0.5;exitY=0;exitDx=0;exitDy=0;shadow=0;fontSize=12;startArrow=classic;startFill=1;endArrow=none;endFill=0;" edge="1" parent="WIyWlLk6GJQsqaUBKTNV-1" source="TxjsqX_ssU-Fthm4vo7j-120" target="TxjsqX_ssU-Fthm4vo7j-120">
          <mxGeometry relative="1" as="geometry" />
        </mxCell>
      </root>
    </mxGraphModel>
  </diagram>
</mxfile>
